<?xml version="1.0" encoding="UTF-8" standalone="no"?>
<!-- Created with Inkscape (http://www.inkscape.org/) -->
<svg
   xmlns:dc="http://purl.org/dc/elements/1.1/"
   xmlns:cc="http://creativecommons.org/ns#"
   xmlns:rdf="http://www.w3.org/1999/02/22-rdf-syntax-ns#"
   xmlns:svg="http://www.w3.org/2000/svg"
   xmlns="http://www.w3.org/2000/svg"
   xmlns:sodipodi="http://sodipodi.sourceforge.net/DTD/sodipodi-0.dtd"
   xmlns:inkscape="http://www.inkscape.org/namespaces/inkscape"
   id="svg4158"
   sodipodi:version="0.32"
   inkscape:version="0.46"
   width="135"
   height="135"
   version="1.0"
   sodipodi:docname="scrabble2.svg"
   inkscape:output_extension="org.inkscape.output.svg.inkscape">
  <metadata
     id="metadata4163">
    <rdf:RDF>
      <cc:Work
         rdf:about="">
        <dc:format>image/svg+xml</dc:format>
        <dc:type
           rdf:resource="http://purl.org/dc/dcmitype/StillImage" />
      </cc:Work>
    </rdf:RDF>
  </metadata>
  <defs
     id="defs4161"><inkscape:perspective
   sodipodi:type="inkscape:persp3d"
   inkscape:vp_x="0 : 526.18109 : 1"
   inkscape:vp_y="0 : 1000 : 0"
   inkscape:vp_z="744.09448 : 526.18109 : 1"
   inkscape:persp3d-origin="372.04724 : 350.78739 : 1"
   id="perspective4165" />
<inkscape:perspective
   id="perspective4176"
   inkscape:persp3d-origin="372.04724 : 350.78739 : 1"
   inkscape:vp_z="744.09448 : 526.18109 : 1"
   inkscape:vp_y="0 : 1000 : 0"
   inkscape:vp_x="0 : 526.18109 : 1"
   sodipodi:type="inkscape:persp3d" />


	
	
	
	
<inkscape:perspective
   sodipodi:type="inkscape:persp3d"
   inkscape:vp_x="-468.34345 : 278.23456 : 1"
   inkscape:vp_y="6.1230318e-14 : 1000 : 0"
   inkscape:vp_z="1230.8043 : 373.12767 : 1"
   inkscape:persp3d-origin="372.04724 : 350.78739 : 1"
   id="perspective3322">
		</inkscape:perspective>

	
	
		</defs>
  <sodipodi:namedview
     inkscape:window-height="712"
     inkscape:window-width="1024"
     inkscape:pageshadow="2"
     inkscape:pageopacity="0.0"
     guidetolerance="10.0"
     gridtolerance="10.0"
     objecttolerance="10.0"
     borderopacity="1.0"
     bordercolor="#666666"
     pagecolor="#ffffff"
     id="base"
     showgrid="false"
     inkscape:zoom="1.3067333"
     inkscape:cx="110.35799"
     inkscape:cy="71.924538"
     inkscape:window-x="-4"
     inkscape:window-y="-4"
     inkscape:current-layer="svg4158" />
  <g
     id="g4443">
    <path
       id="rect3326"
       d="M 15.463999,5.0000006 L 119.53599,5.0000006 C 125.31398,5.0000006 129.99999,9.6850006 129.99999,15.464001 L 129.99999,119.536 C 129.99999,125.314 125.31398,130 119.53599,130 L 15.463999,130 C 9.6849993,130 5,125.314 5,119.536 L 5,15.464001 C 5,9.6850006 9.6849993,5.0000006 15.463999,5.0000006 z"
       style="fill:#d4c462" />
    <g
       id="flowRoot3837"
       transform="matrix(0.279661,0,0,0.2613122,-2.869249,2.1719507)">
	</g>
    <path
       id="flowRoot4260"
       d="M 103.84766,173.04794 L 114.84375,144.41513 L 118.92578,144.41513 L 130.64453,173.04794 L 126.32812,173.04794 L 122.98828,164.37606 L 111.01562,164.37606 L 107.87109,173.04794 L 103.84766,173.04794 z M 112.10938,161.29013 L 121.81641,161.29013 L 118.82812,153.36044 C 117.91665,150.95161 117.23957,148.97244 116.79688,147.42294 C 116.43228,149.2589 115.91796,151.08182 115.25391,152.89169 L 112.10938,161.29013 z"
       style="font-size:40px;font-style:normal;font-weight:normal;fill:#000000;fill-opacity:1;stroke:none;stroke-width:1px;stroke-linecap:butt;stroke-linejoin:miter;stroke-opacity:1;font-family:Bitstream Vera Sans"
       transform="matrix(1.6046647,0,0,2.025648,-126.14067,-258.28422)" />
    <path
       id="flowRoot4268"
       d="M 255.15234,309.39169 L 251.63672,309.39169 L 251.63672,286.98935 C 250.79035,287.79666 249.68033,288.60395 248.30664,289.41122 C 246.93294,290.21853 245.69921,290.824 244.60547,291.22763 L 244.60547,287.82919 C 246.57161,286.90473 248.29036,285.78494 249.76172,284.46981 C 251.23306,283.15474 252.27473,281.8787 252.88672,280.64169 L 255.15234,280.64169 L 255.15234,309.39169 z"
       style="font-size:40px;font-style:normal;font-weight:normal;fill:#000000;fill-opacity:1;stroke:none;stroke-width:1px;stroke-linecap:butt;stroke-linejoin:miter;stroke-opacity:1;font-family:Bitstream Vera Sans"
       transform="matrix(1.1377778,0,0,0.9043478,-189.80667,-176.7977)" />
  </g>
</svg>
